HIERARCHY
ROOT hip
{
  OFFSET 0 0 0
  CHANNELS 6 Xposition Yposition Zposition Zrotation Yrotation Xrotation
  JOINT abdomen
  {
    OFFSET 0 20.6881 -0.73152
    CHANNELS 3 Zrotation Xrotation Yrotation
    JOINT chest
    {
      OFFSET 0 11.7043 -0.48768
      CHANNELS 3 Zrotation Xrotation Yrotation
      JOINT neck
      {
        OFFSET 0 22.1894 -2.19456
        CHANNELS 3 Zrotation Xrotation Yrotation
        JOINT head
        {
          OFFSET -0.24384 7.07133 1.2192
          CHANNELS 3 Zrotation Xrotation Yrotation
          JOINT leftEye
          {
            OFFSET 4.14528 8.04674 8.04672
            CHANNELS 3 Zrotation Xrotation Yrotation
            End Site
            {
              OFFSET 1 0 0
            }
          }
          JOINT rightEye
          {
            OFFSET -3.6576 8.04674 8.04672
            CHANNELS 3 Zrotation Xrotation Yrotation
            End Site
            {
              OFFSET 1 0 0
            }
          }
        }
      }
      JOINT rCollar
      {
        OFFSET -2.68224 19.2634 -4.8768
        CHANNELS 3 Zrotation Xrotation Yrotation
        JOINT rShldr
        {
          OFFSET -8.77824 -1.95073 1.46304
          CHANNELS 3 Zrotation Xrotation Yrotation
          JOINT rForeArm
          {
            OFFSET -28.1742 -1.7115 0.48768
            CHANNELS 3 Zrotation Xrotation Yrotation
            JOINT rHand
            {
              OFFSET -22.5879 0.773209 7.07136
              CHANNELS 3 Zrotation Xrotation Yrotation
              JOINT rThumb1
              {
                OFFSET -1.2192 -0.487915 3.41376
                CHANNELS 3 Zrotation Xrotation Yrotation
                JOINT rThumb2
                {
                  OFFSET -3.37035 -0.52449 3.41376
                  CHANNELS 3 Zrotation Xrotation Yrotation
                  End Site
                  {
                    OFFSET -1.78271 -1.18214 1.43049
                  }
                }
              }
              JOINT rIndex1
              {
                OFFSET -7.75947 0.938293 5.60832
                CHANNELS 3 Zrotation Xrotation Yrotation
                JOINT rIndex2
                {
                  OFFSET -2.54057 -0.884171 1.56538
                  CHANNELS 3 Zrotation Xrotation Yrotation
                  End Site
                  {
                    OFFSET -1.62519 -0.234802 1.16502
                  }
                }
              }
              JOINT rMid1
              {
                OFFSET -8.24714 1.18213 3.41376
                CHANNELS 3 Zrotation Xrotation Yrotation
                JOINT rMid2
                {
                  OFFSET -3.10165 -0.590103 1.0647
                  CHANNELS 3 Zrotation Xrotation Yrotation
                  End Site
                  {
                    OFFSET -2.48547 -0.328903 0.83742
                  }
                }
              }
              JOINT rRing1
              {
                OFFSET -8.82822 0.546677 1.51678
                CHANNELS 3 Zrotation Xrotation Yrotation
                JOINT rRing2
                {
                  OFFSET -2.60934 -0.819778 -0.0198488
                  CHANNELS 3 Zrotation Xrotation Yrotation
                  End Site
                  {
                    OFFSET -2.33842 -0.294052 0.168128
                  }
                }
              }
              JOINT rPinky1
              {
                OFFSET -8.27202 -0.0477905 -0.4584
                CHANNELS 3 Zrotation Xrotation Yrotation
                JOINT rPinky2
                {
                  OFFSET -1.82734 -0.647385 -0.700984
                  CHANNELS 3 Zrotation Xrotation Yrotation
                  End Site
                  {
                    OFFSET -1.69225 -0.51767 -0.607171
                  }
                }
              }
            }
          }
        }
      }
      JOINT lCollar
      {
        OFFSET 2.68224 19.2634 -4.8768
        CHANNELS 3 Zrotation Xrotation Yrotation
        JOINT lShldr
        {
          OFFSET 8.77824 -1.95073 1.46304
          CHANNELS 3 Zrotation Xrotation Yrotation
          JOINT lForeArm
          {
            OFFSET 28.1742 -1.7115 0.48768
            CHANNELS 3 Zrotation Xrotation Yrotation
            JOINT lHand
            {
              OFFSET 22.5879 0.773209 7.07136
              CHANNELS 3 Zrotation Xrotation Yrotation
              JOINT lThumb1
              {
                OFFSET 1.2192 -0.487915 3.41376
                CHANNELS 3 Zrotation Xrotation Yrotation
                JOINT lThumb2
                {
                  OFFSET 3.37035 -0.52449 3.41376
                  CHANNELS 3 Zrotation Xrotation Yrotation
                  End Site
                  {
                    OFFSET 1.78271 -1.18214 1.43049
                  }
                }
              }
              JOINT lIndex1
              {
                OFFSET 7.75947 0.938293 5.60832
                CHANNELS 3 Zrotation Xrotation Yrotation
                JOINT lIndex2
                {
                  OFFSET 2.54057 -0.884171 1.56538
                  CHANNELS 3 Zrotation Xrotation Yrotation
                  End Site
                  {
                    OFFSET 1.62519 -0.234802 1.16502
                  }
                }
              }
              JOINT lMid1
              {
                OFFSET 8.24714 1.18213 3.41376
                CHANNELS 3 Zrotation Xrotation Yrotation
                JOINT lMid2
                {
                  OFFSET 3.10165 -0.590103 1.0647
                  CHANNELS 3 Zrotation Xrotation Yrotation
                  End Site
                  {
                    OFFSET 2.48547 -0.328903 0.83742
                  }
                }
              }
              JOINT lRing1
              {
                OFFSET 8.82822 0.546677 1.51678
                CHANNELS 3 Zrotation Xrotation Yrotation
                JOINT lRing2
                {
                  OFFSET 2.60934 -0.819778 -0.0198488
                  CHANNELS 3 Zrotation Xrotation Yrotation
                  End Site
                  {
                    OFFSET 2.33842 -0.294052 0.168128
                  }
                }
              }
              JOINT lPinky1
              {
                OFFSET 8.27202 -0.0477905 -0.4584
                CHANNELS 3 Zrotation Xrotation Yrotation
                JOINT lPinky2
                {
                  OFFSET 1.82734 -0.647385 -0.700984
                  CHANNELS 3 Zrotation Xrotation Yrotation
                  End Site
                  {
                    OFFSET 1.69225 -0.51767 -0.607171
                  }
                }
              }
            }
          }
        }
      }
    }
  }
  JOINT rButtock
  {
    OFFSET -8.77824 4.35084 1.2192
    CHANNELS 3 Zrotation Xrotation Yrotation
    JOINT rThigh
    {
      OFFSET 0 -1.70687 -2.19456
      CHANNELS 3 Zrotation Xrotation Yrotation
      JOINT rShin
      {
        OFFSET 0 -36.8199 0.73152
        CHANNELS 3 Zrotation Xrotation Yrotation
        JOINT rFoot
        {
          OFFSET 0.73152 -45.1104 -5.12064
          CHANNELS 3 Zrotation Xrotation Yrotation
          End Site
          {
            OFFSET -1.1221 -3.69964 12.103
          }
        }
      }
    }
  }
  JOINT lButtock
  {
    OFFSET 8.77824 4.35084 1.2192
    CHANNELS 3 Zrotation Xrotation Yrotation
    JOINT lThigh
    {
      OFFSET 0 -1.70687 -2.19456
      CHANNELS 3 Zrotation Xrotation Yrotation
      JOINT lShin
      {
        OFFSET 0 -36.8199 0.73152
        CHANNELS 3 Zrotation Xrotation Yrotation
        JOINT lFoot
        {
          OFFSET -0.73152 -45.1104 -5.12064
          CHANNELS 3 Zrotation Xrotation Yrotation
          End Site
          {
            OFFSET 1.1221 -3.69964 12.103
          }
        }
      }
    }
  }
}
MOTION
Frames:	5
Frame Time:	0.00833333
56.1706 85.507 -96.0651 0.0 0.0 0.0 2.23578 -0.000464354 0.0604482 0.615856 0.00896397 0.106601 -6.12565e-14 1.59028e-15 -1.98785e-16 -1.85708e-13 9.54166e-15 -7.00405e-16 -0.0 0.0 0.0 -0.0 0.0 0.0 -3.04645e-14 2.71388e-16 4.96962e-17 -6.47171e-13 5.9946e-15 -3.37934e-15 -1.11569e-11 3.54095e-12 3.49861e-14 -1.27795e-10 -2.29278e-12 -6.64736e-13 -3.01431e-10 2.70466e-12 -1.31357e-12 -5.20563e-10 4.67223e-12 -2.2566e-12 -3.01427e-10 2.70387e-12 -1.32311e-12 7.73091 5.47488 0.417314 -3.01431e-10 2.70466e-12 -1.31357e-12 2.90554 0.965183 0.102902 -3.01426e-10 2.70496e-12 -1.31277e-12 10.2786 0.731801 0.0259123 -3.01437e-10 2.70586e-12 -1.30403e-12 2.22167 -0.733487 -0.20892 -3.06638e-14 2.67893e-16 -2.48481e-16 -6.49686e-13 6.20581e-15 -5.36719e-15 -1.11686e-11 -3.14318e-12 6.67917e-14 -1.27756e-10 4.39789e-12 -6.77458e-13 -3.01374e-10 2.71822e-12 -1.31993e-12 -5.20456e-10 4.69132e-12 -2.2574e-12 -3.01375e-10 2.71818e-12 -1.30085e-12 -7.73091 5.47488 -0.417314 -3.01371e-10 2.71798e-12 -1.31675e-12 -2.90554 0.965183 -0.102902 -3.01378e-10 2.71848e-12 -1.31595e-12 -10.2786 0.731801 -0.0259123 -3.01369e-10 2.72176e-12 -1.32311e-12 -2.22167 -0.733487 0.20892 -2.03217e-16 0.0 -3.88251e-19 2.21372 -7.80148 -0.224383 0.00520663 8.5593 0.135745 -0.550978 -0.766423 0.046469 2.03217e-16 0.0 3.88251e-19 1.1912 -1.92859 -0.00266238 0.00903923 -2.07859 0.0745232 0.506293 3.9985 -0.139469
56.9564 85.5149 -101.433 -0.0085 1.2845 5.917 2.06396 -3.41589 -0.857242 0.733721 1.32568 -0.147811 -1.98772 5.60975 -3.40163 4.14264 -7.33543 -6.07935 -0.0 0.0 0.0 -0.0 0.0 0.0 -9.80573e-15 1.08382e-14 3.59132e-15 21.9728 3.37141 -2.21629 -3.11745 -1.25101 5.03413 0.00300269 1.32328 0.185861 -2.95945e-10 -5.10703e-12 5.86923e-11 -5.10526e-10 -9.24053e-12 1.02276e-10 -2.95942e-10 -5.10711e-12 5.86866e-11 7.73091 5.47488 0.417314 -2.95945e-10 -5.10591e-12 5.86931e-11 2.90554 0.965183 0.102902 -2.95938e-10 -5.10585e-12 5.86936e-11 10.2786 0.731801 0.0259123 -2.95951e-10 -5.10478e-12 5.86999e-11 2.22167 -0.733487 -0.20892 -9.98174e-15 1.08358e-14 3.35216e-15 -21.2338 7.61844 0.365804 3.70334 -1.59162 -5.87935 -0.0132214 -2.55108 0.357247 -3.30865e-10 -1.02669e-10 -1.13852e-10 -5.70658e-10 -1.76592e-10 -1.97844e-10 -3.30867e-10 -1.02667e-10 -1.13834e-10 -7.73091 5.47488 -0.417314 -3.30863e-10 -1.02667e-10 -1.13848e-10 -2.90554 0.965183 -0.102902 -3.30871e-10 -1.02667e-10 -1.13849e-10 -10.2786 0.731801 -0.0259123 -3.30863e-10 -1.02666e-10 -1.13857e-10 -2.22167 -0.733487 0.20892 -2.03217e-16 0.0 -3.88251e-19 1.63257 -7.94759 2.556 0.00223182 8.96382 0.109528 -0.364336 -5.06114 -4.01554 2.03217e-16 0.0 3.88251e-19 2.99753 -1.57349 -1.05021 0.00922468 -2.01473 0.0755816 0.206854 2.277 -0.635941
56.976 85.4616 -101.448 0.0955 1.286 5.9471 1.76325 -7.02136 -1.83829 0.86761 2.71518 -0.417011 -3.3528 11.4477 -7.10903 6.77664 -14.756 -12.8479 -0.0 0.0 0.0 -0.0 0.0 0.0 1.1961e-14 2.12393e-14 7.97002e-15 45.4839 6.88636 -4.58054 -6.17752 -2.54278 10.3676 -0.0034533 2.66172 0.374228 -2.93981e-10 -1.64308e-11 1.40257e-10 -5.06392e-10 -2.93253e-11 2.44156e-10 -2.93978e-10 -1.64301e-11 1.40256e-10 7.73091 5.47488 0.417314 -2.93982e-10 -1.64284e-11 1.40259e-10 2.90554 0.965183 0.102902 -2.93973e-10 -1.64287e-11 1.40259e-10 10.2786 0.731801 0.0259123 -2.93986e-10 -1.64274e-11 1.40262e-10 2.22167 -0.733487 -0.20892 1.1807e-14 2.12381e-14 7.79609e-15 -43.7889 15.6747 0.781204 7.26208 -3.2163 -12.1043 0.00753088 -5.24953 0.737541 -3.62537e-10 -2.27688e-10 -2.40112e-10 -6.24574e-10 -3.91789e-10 -4.1722e-10 -3.62539e-10 -2.27686e-10 -2.40096e-10 -7.73091 5.47488 -0.417314 -3.62535e-10 -2.27685e-10 -2.40108e-10 -2.90554 0.965183 -0.102902 -3.62545e-10 -2.27685e-10 -2.40109e-10 -10.2786 0.731801 -0.0259123 -3.62536e-10 -2.27685e-10 -2.40119e-10 -2.22167 -0.733487 0.20892 -2.03217e-16 0.0 -3.88251e-19 1.03257 -8.07927 5.49631 -0.000497593 9.39269 0.081766 -0.835036 -9.52653 -8.39366 2.03217e-16 0.0 3.88251e-19 4.9217 -1.19661 -2.1529 0.0094059 -1.94408 0.0765599 -0.142673 0.458886 -1.16622
56.9811 85.422 -101.444 0.1841 1.2937 5.9825 1.38777 -10.2365 -2.73156 1.00459 3.95887 -0.658085 -3.90325 16.5869 -10.6019 7.56913 -20.9825 -19.4225 -0.0 0.0 0.0 -0.0 0.0 0.0 3.15118e-14 3.1972e-14 1.06746e-14 66.7094 10.0532 -6.74132 -8.70023 -3.63731 15.13 -0.0167998 3.96968 0.558776 -2.84973e-10 -2.07304e-11 1.78704e-10 -4.90454e-10 -3.70661e-11 3.1134e-10 -2.84971e-10 -2.07291e-11 1.78706e-10 7.73091 5.47488 0.417314 -2.84974e-10 -2.0727e-11 1.78707e-10 2.90554 0.965183 0.102902 -2.84963e-10 -2.07275e-11 1.78706e-10 10.2786 0.731801 0.0259123 -2.84978e-10 -2.07261e-11 1.78708e-10 2.22167 -0.733487 -0.20892 3.13823e-14 3.19717e-14 1.05534e-14 -64.0142 22.8514 1.18038 10.1447 -4.57413 -17.6894 0.0564979 -7.65203 1.0803 -3.89849e-10 -3.13442e-10 -3.38915e-10 -6.71061e-10 -5.3916e-10 -5.89017e-10 -3.89851e-10 -3.13439e-10 -3.38901e-10 -7.73091 5.47488 -0.417314 -3.89847e-10 -3.13438e-10 -3.38912e-10 -2.90554 0.965183 -0.102902 -3.89858e-10 -3.13438e-10 -3.38914e-10 -10.2786 0.731801 -0.0259123 -3.8985e-10 -3.1344e-10 -3.38924e-10 -2.22167 -0.733487 0.20892 -2.03217e-16 0.0 -3.88251e-19 0.511897 -8.18136 8.12212 -0.00259118 9.77285 0.0569306 -1.84609 -13.3783 -12.4351 2.03217e-16 0.0 3.88251e-19 6.64912 -0.862777 -3.14449 0.00958851 -1.88702 0.0776983 -0.481496 -1.16513 -1.62839
56.9628 85.3893 -101.431 0.093 1.2483 5.9892 1.06135 -12.4856 -3.36827 1.12463 4.83828 -0.827433 -3.87767 20.2075 -13.1889 7.20432 -25.1884 -24.4173 -0.0 0.0 0.0 -0.0 0.0 0.0 4.5523e-14 4.35335e-14 9.19379e-15 81.675 12.4061 -8.30998 -10.3385 -4.34966 18.4378 -0.0332985 5.20154 0.733063 -2.58354e-10 -7.46953e-12 1.09357e-10 -4.4501e-10 -1.39467e-11 1.91784e-10 -2.58352e-10 -7.46794e-12 1.0936e-10 7.73091 5.47488 0.417314 -2.58356e-10 -7.46586e-12 1.0936e-10 2.90554 0.965183 0.102902 -2.58344e-10 -7.46625e-12 1.09359e-10 10.2786 0.731801 0.0259123 -2.58359e-10 -7.46476e-12 1.0936e-10 2.22167 -0.733487 -0.20892 4.54239e-14 4.35338e-14 9.0944e-15 -78.1776 27.8333 1.45688 12.0085 -5.45465 -21.6264 0.107636 -9.31582 1.32103 -4.06263e-10 -3.01033e-10 -3.69078e-10 -6.98976e-10 -5.16964e-10 -6.41869e-10 -4.06266e-10 -3.0103e-10 -3.69065e-10 -7.73091 5.47488 -0.417314 -4.06261e-10 -3.01028e-10 -3.69075e-10 -2.90554 0.965183 -0.102902 -4.06273e-10 -3.01029e-10 -3.69077e-10 -10.2786 0.731801 -0.0259123 -4.06264e-10 -3.01031e-10 -3.69087e-10 -2.22167 -0.733487 0.20892 -2.03217e-16 0.0 -3.88251e-19 0.162045 -8.25155 9.95827 -0.00389628 10.0312 0.0395313 -2.88839 -15.9529 -15.3586 2.03217e-16 0.0 3.88251e-19 7.85727 -0.636573 -3.85881 0.00977896 -1.86394 0.079237 -0.728858 -2.30494 -1.91928
